<svg viewBox="0 0 1200 380" width="100%" height="340" xmlns="http://www.w3.org/2000/svg">
    <style>
        text { font-family: -apple-system, BlinkMacSystemFont, "Segoe UI", Roboto, Helvetica, Arial, sans-serif; }
        .box-bg { fill: #e6f4ea; stroke: #a7cdb3; stroke-width: 1; }
        .title { font-weight: 700; font-size: 16px; fill: #1a202c; }
        .content { font-size: 13px; fill: #4a5568; }
    </style>

    <g>
        <rect class="box-bg" x="20" y="20" width="570" height="100" rx="6"/>
        <rect x="20" y="20" width="4" height="100" fill="#1f883d"/>
        <text class="title" x="40" y="50">Defaults and Theming</text>
        <text class="content" x="40" y="78">SimpleFactory defaults, provider hooks and loadDefault() composition</text>
        <text class="content" x="40" y="98">User configuration remains the final override layer</text>
    </g>

    <g>
        <rect class="box-bg" x="610" y="20" width="570" height="100" rx="6"/>
        <rect x="610" y="20" width="4" height="100" fill="#1f883d"/>
        <text class="title" x="630" y="50">Extensible Base Elements</text>
        <text class="content" x="630" y="78">Build block, inline, input and void elements from reusable base classes</text>
        <text class="content" x="630" y="98">BackedEnum tags keep rendering decoupled from concrete enum packages</text>
    </g>

    <g>
        <rect class="box-bg" x="20" y="140" width="570" height="100" rx="6"/>
        <rect x="20" y="140" width="4" height="100" fill="#1f883d"/>
        <text class="title" x="40" y="170">Immutable Fluent Builders</text>
        <text class="content" x="40" y="198">Clone-based tag APIs with attribute, content, prefix and suffix mixins</text>
        <text class="content" x="40" y="218">Predictable configuration for reusable component classes</text>
    </g>

    <g>
        <rect class="box-bg" x="610" y="140" width="570" height="100" rx="6"/>
        <rect x="610" y="140" width="4" height="100" fill="#1f883d"/>
        <text class="title" x="630" y="170">Safe Content Encoding</text>
        <text class="content" x="630" y="198">Optional encoded content output for full elements and inline tags</text>
        <text class="content" x="630" y="218">Raw rendering stays explicit for trusted markup</text>
    </g>

    <g>
        <rect class="box-bg" x="20" y="260" width="570" height="100" rx="6"/>
        <rect x="20" y="260" width="4" height="100" fill="#1f883d"/>
        <text class="title" x="40" y="290">Stack-Safe Begin/End</text>
        <text class="content" x="40" y="318">Fiber-aware WeakMap stacks for nested begin() and end() flows</text>
        <text class="content" x="40" y="338">Explicit errors for missing begin() calls and tag class mismatches</text>
    </g>

    <g>
        <rect class="box-bg" x="610" y="260" width="570" height="100" rx="6"/>
        <rect x="610" y="260" width="4" height="100" fill="#1f883d"/>
        <text class="title" x="630" y="290">Static HTML Renderer</text>
        <text class="content" x="630" y="318">Html::begin(), end(), element(), inline() and void() entry points</text>
        <text class="content" x="630" y="338">Attribute rendering is delegated to the helper package</text>
    </g>
</svg>
