<!-- Mobile version - Single column -->
<svg viewBox="0 0 620 620" width="100%" height="580" xmlns="http://www.w3.org/2000/svg">
    <style>
        text { font-family: -apple-system, BlinkMacSystemFont, "Segoe UI", Roboto, Helvetica, Arial, sans-serif; }
        .box-bg { fill: #e6f4ea; stroke: #a7cdb3; stroke-width: 1; }
        .title { font-weight: 700; font-size: 14px; fill: #1a202c; }
        .content { font-size: 11px; fill: #4a5568; }
    </style>

    <g>
        <rect class="box-bg" x="16" y="16" width="588" height="84" rx="6"/>
        <rect x="16" y="16" width="4" height="84" fill="#1f883d"/>
        <text class="title" x="32" y="42">Defaults and Theming</text>
        <text class="content" x="32" y="66">Scoped config recipes, provider hooks and loadDefault() composition</text>
        <text class="content" x="32" y="84">User configuration remains the final override layer</text>
    </g>
    <g>
        <rect class="box-bg" x="16" y="116" width="588" height="84" rx="6"/>
        <rect x="16" y="116" width="4" height="84" fill="#1f883d"/>
        <text class="title" x="32" y="142">Extensible Base Elements</text>
        <text class="content" x="32" y="166">Build block, inline, input and void elements from reusable base classes</text>
        <text class="content" x="32" y="184">BackedEnum tags keep rendering decoupled from concrete enum packages</text>
    </g>
    <g>
        <rect class="box-bg" x="16" y="216" width="588" height="84" rx="6"/>
        <rect x="16" y="216" width="4" height="84" fill="#1f883d"/>
        <text class="title" x="32" y="242">Immutable Fluent Builders</text>
        <text class="content" x="32" y="266">Clone-based tag APIs with attribute, content, prefix and suffix mixins</text>
        <text class="content" x="32" y="284">Predictable configuration for reusable component classes</text>
    </g>
    <g>
        <rect class="box-bg" x="16" y="316" width="588" height="84" rx="6"/>
        <rect x="16" y="316" width="4" height="84" fill="#1f883d"/>
        <text class="title" x="32" y="342">Safe Content Encoding</text>
        <text class="content" x="32" y="366">Optional encoded content output for full elements and inline tags</text>
        <text class="content" x="32" y="384">Raw rendering stays explicit for trusted markup</text>
    </g>
    <g>
        <rect class="box-bg" x="16" y="416" width="588" height="84" rx="6"/>
        <rect x="16" y="416" width="4" height="84" fill="#1f883d"/>
        <text class="title" x="32" y="442">Stack-Safe Begin/End</text>
        <text class="content" x="32" y="466">Fiber-aware WeakMap stacks for nested begin() and end() flows</text>
        <text class="content" x="32" y="484">Explicit errors for missing begin() calls and tag class mismatches</text>
    </g>
    <g>
        <rect class="box-bg" x="16" y="516" width="588" height="84" rx="6"/>
        <rect x="16" y="516" width="4" height="84" fill="#1f883d"/>
        <text class="title" x="32" y="542">Static HTML Renderer</text>
        <text class="content" x="32" y="566">Html::begin(), end(), element(), inline() and void() entry points</text>
        <text class="content" x="32" y="584">Attribute rendering is delegated to the helper package</text>
    </g>
</svg>
